<?xml version="1.0" encoding="utf-8"?>
<!-- Generator: Adobe Illustrator 26.4.1, SVG Export Plug-In . SVG Version: 6.00 Build 0)  -->
<svg version="1.0" id="katman_1" xmlns="http://www.w3.org/2000/svg" xmlns:xlink="http://www.w3.org/1999/xlink" x="0px" y="0px"
	 viewBox="0 0 1190.55 841.89" style="enable-background:new 0 0 1190.55 841.89;" xml:space="preserve">
<style type="text/css">
	.st0{fill:#7098A5;}
	.st1{fill:#EB912C;}
	.st2{fill:#59879B;}
	.st3{fill-rule:evenodd;clip-rule:evenodd;fill:#1E447F;}
	.st4{fill:#E9762C;}
	.st5{fill:#5B6592;}
	.st6{fill:#C82235;}
	.st7{fill:#1E447F;}
</style>
<path class="st0" d="M225.29,330.9v9.2h-16.47v6h16.47v18.33h6.42v-18.33h16.87v-5.98h-16.87v-18.37h-6.42V330.9z"/>
<path class="st1" d="M171.5,354.25v13.35h-24.94v8.38h24.94v27.11h9.24v-27.11h25.29v-8.38h-25.31v-26.7h-9.24v13.35H171.5z"/>
<path class="st2" d="M275.9,354.25v13.35h-24.91v8.79h24.91v26.7h9.61v-26.7h24.91v-8.79h-24.91v-26.7h-9.61
	C275.9,340.89,275.9,354.25,275.9,354.25z"/>
<path class="st3" d="M730.44,361.61h12.84v113.7h-12.84V361.63L730.44,361.61z M624.2,373.57h13.06v15.79
	c0,14.81,0.07,15.7,0.72,15.53l4.32-1.24c2.36-0.63,5.21-1.04,8.24-1.23c2.68-0.19,5.36-0.05,8,0.44c4.69,1.06,9.09,3.15,12.86,6.14
	c3.21,3,5.7,6.68,7.3,10.77c0.78,2.14,1.38,4.34,1.79,6.58c0.45,2.7,0.57,5.02,0.42,8.68c-0.12,2.73-0.53,6.14-0.9,7.56
	c-0.5,1.84-1.15,3.64-1.95,5.37c-0.89,1.83-1.94,3.57-3.14,5.21c-2.66,3.31-6.07,5.94-9.95,7.67c-1.95,0.88-3.97,1.62-6.03,2.21
	c-2.58,0.72-4.23,0.82-11.63,0.86c-6.39,0.37-12.8-0.45-18.89-2.44c-1.26-0.31-2.49-0.73-3.67-1.27
	c-0.14-0.16-0.33-19.68-0.41-43.42L624.2,373.57z M640.48,416.13l-2.99,1.05v33.18c6.28,1.65,7.62,1.76,11.82,1.65
	c2.51,0.13,5.04-0.23,7.43-1.05c1.31-0.51,3.15-1.49,4.01-2.2c0.9-0.68,2.16-1.95,2.84-2.81c0.87-1.23,1.59-2.56,2.13-3.96
	c0.53-1.31,1.12-3.82,1.35-5.58c0.33-2.39,0.33-4.04-0.04-6.58c-0.51-3.95-2.16-7.67-4.75-10.7c-1.01-0.97-2.13-1.83-3.33-2.54
	c-2.87-1.6-6.13-2.39-9.42-2.28c-1.53,0.04-3.56,0.23-4.42,0.41c-0.9,0.19-2.95,0.84-4.63,1.43L640.48,416.13z M411.62,377.58h12.84
	v36.28h34.51v11.98h-34.51v39.09h-12.84v-39.09h-34.53v-11.98h34.53V377.58z"/>
<path class="st4" d="M222.89,399.72v14.96h-27.71v11.15h27.71v29.92h11.23v-29.92h27.72v-11.15h-27.72v-29.92h-11.23V399.72z"/>
<path class="st5" d="M304.41,407.28v9.39h-16.87v7.6h16.87v18.75h8.42v-18.75h16.86v-7.6h-16.87v-18.74h-8.41V407.28z"/>
<path class="st0" d="M143.77,408.11v8.98h-16.46v6.35h16.46v17.95h6.44v-17.95l16.87-0.6v-5.76h-16.87v-17.96h-6.44
	C143.77,399.12,143.77,408.11,143.77,408.11z"/>
<path class="st3" d="M549.36,401.9h12.83v23.65c0,13.02-0.16,26.21-0.6,35.04l-3.22,0.98c-2.71,0.73-5.46,1.34-8.23,1.83
	c-4.23,0.72-6.13,0.79-12.23,0.63c-3.51,0.08-7.01-0.26-10.44-1c-4.72-1.19-9.11-3.44-12.86-6.54c-1.52-1.43-2.89-3.01-4.08-4.72
	c-1.03-1.58-1.93-3.25-2.69-4.98c-0.53-1.31-1.31-3.92-1.68-5.76c-0.56-3.1-0.72-6.25-0.49-9.39c0.18-4.53,0.44-6.74,1.07-8.98
	c1.27-4.24,3.43-8.17,6.33-11.51c1.45-1.54,3.04-2.95,4.75-4.19c1.53-0.99,3.15-1.84,4.82-2.54c1.31-0.53,3.7-1.23,5.31-1.54
	c1.6-0.3,4.6-0.56,6.62-0.56c2.07,0,4.98,0.31,6.54,0.6c1.54,0.35,3.96,1.17,5.43,1.84c1.42,0.63,2.65,1.19,2.69,1.16
	c0.04,0,0.12-0.9,0.12-1.98C549.36,403.91,549.36,401.9,549.36,401.9z M527.5,416.58c-1.07,0.61-2.65,1.84-3.51,2.78
	c-2.09,2.32-3.52,5.14-4.16,8.19c-0.79,3.57-0.85,7.25-0.19,10.84c0.26,1.31,0.94,3.48,1.58,4.78c1.73,3.5,4.67,6.25,8.26,7.76
	c1.88,0.74,3.37,0.96,7.23,1.15c2.72,0.12,6.17-0.04,8-0.3c1.76-0.26,3.4-0.6,3.67-0.74c0.3-0.19,0.53-5.39,0.72-16.54l0.25-16.24
	c-3.28-1.79-5.12-2.6-6.25-2.99c-1.83-0.51-3.7-0.8-5.61-0.86c-3.46-0.26-6.93,0.49-9.98,2.17V416.58z M946.48,401.9h12.83v20.05
	c0,11.03-0.12,24.24-0.6,38.63l-3.22,0.98c-2.61,0.73-5.25,1.32-7.92,1.76c-6.48,0.96-13.05,1.09-19.57,0.41
	c-2.1-0.43-4.17-0.96-6.21-1.6c-2.32-0.77-4.54-1.81-6.62-3.11c-1.88-1.24-3.62-2.68-5.19-4.3c-1.35-1.53-2.56-3.18-3.59-4.94
	c-0.96-1.85-1.76-3.77-2.39-5.76c-0.83-2.92-1.24-5.94-1.19-8.98c-0.12-3.63,0-6.84,0.29-8.6c0.26-1.54,0.93-4.12,1.49-5.77
	c0.71-2.02,1.63-3.96,2.75-5.79c3.61-5.66,9.2-9.79,15.67-11.6c4.94-0.98,10.03-1.11,15.04-0.42c1.67,0.38,4.18,1.19,5.65,1.87
	c1.42,0.63,2.65,1.19,2.69,1.16c0.08,0,0.12-0.9,0.12-1.98L946.48,401.9L946.48,401.9z M924.62,416.58
	c-1.07,0.61-2.65,1.84-3.51,2.78c-3.41,3.86-5.12,8.92-4.75,14.06c-0.1,3.46,0.61,6.91,2.05,10.07c0.49,0.93,1.73,2.58,2.75,3.63
	c2.08,2.17,4.74,3.7,7.66,4.42c1.39,0.41,3.67,0.63,6.33,0.63c2.25,0,5.42-0.19,6.99-0.42c1.61-0.23,3.14-0.56,3.37-0.72
	c0.33-0.18,0.53-5.02,0.64-16.56l0.11-16.35c-2.42-1.34-4.98-2.43-7.63-3.25c-3.22-0.73-6.57-0.72-9.79,0.04
	c-1.46,0.42-2.87,0.98-4.19,1.68L924.62,416.58z M826.03,402.49c2.32,0.12,5.27,0.48,6.62,0.84c3.46,0.93,6.74,2.51,9.61,4.66
	c1.35,1.02,3.22,2.89,4.18,4.16c0.98,1.28,2.36,3.58,3.1,5.14c0.89,1.93,1.63,3.92,2.19,5.97c0.44,1.77,0.96,5.31,1.37,12.58h-44.35
	l0.26,1.49c0.42,3.02,1.54,5.9,3.26,8.42c0.82,1.16,2.05,2.54,2.69,3.02c0.68,0.49,2.03,1.31,3.03,1.84
	c0.97,0.48,2.7,1.12,3.82,1.42c1.12,0.3,4.11,0.56,6.81,0.56c2.65,0,6.46-0.26,8.46-0.6c1.98-0.33,4.78-1.02,6.21-1.46
	c1.42-0.45,3.28-1.16,4.11-1.58c0.6-0.34,1.24-0.6,1.91-0.79c0.26,0,0.41,2.29,0.41,11.98l-2.21,1c-1.87,0.79-3.78,1.47-5.72,2.03
	c-1.95,0.51-5.49,1.19-7.93,1.45c-3.33,0.35-5.57,0.35-9.05,0c-5.08-0.31-10.05-1.68-14.58-4c-4.18-2.47-7.77-5.82-10.51-9.83
	c-2.21-3.73-3.65-7.86-4.24-12.16c-0.86-7.02,0.25-14.15,3.22-20.58c1-1.96,2.17-3.83,3.51-5.58c1.09-1.31,3.22-3.32,4.75-4.48
	c1.53-1.17,4.12-2.63,5.73-3.3c1.95-0.77,3.96-1.37,6.02-1.79c2.05-0.38,4.53-0.53,7.33-0.42H826.03z M817.23,416.8
	c-1.38,0.86-2.64,1.89-3.77,3.06c-0.86,1.02-2.03,2.66-2.54,3.7c-0.4,0.73-0.73,1.5-0.97,2.29c0,0.26,5.05,0.41,14.35,0.41h14.37
	c-0.18-1.76-0.54-3.51-1.07-5.19c-0.35-0.75-1.31-2.17-2.17-3.11c-1.04-1.14-2.34-2.01-3.79-2.54c-3.22-1.13-6.72-1.31-10.06-0.53
	C820.38,415.22,818.43,416.08,817.23,416.8L817.23,416.8z M1009.06,403.52h13.32l-0.04,20.05c0,18.88,0.04,20.18,0.79,22.62
	c0.48,1.5,1.39,3.26,2.13,4.16c0.72,0.82,2.21,1.95,3.34,2.47c4.61,1.96,9.82,1.96,14.43,0c1.25-0.62,2.38-1.46,3.34-2.47
	c0.94-1.25,1.66-2.66,2.13-4.16c0.74-2.42,0.78-3.74,0.78-42.67h13.14l-0.07,21.65c-0.04,20.51-0.08,21.74-0.84,24.02
	c-1.05,2.94-2.72,5.62-4.9,7.86c-2.74,2.47-6,4.29-9.53,5.35c-2.03,0.63-4.72,1.12-7.23,1.31c-2.25,0.11-5.83,0.11-8.04-0.05
	c-2.45-0.14-4.87-0.56-7.23-1.27c-1.96-0.63-3.85-1.45-5.65-2.44c-1.4-0.85-2.71-1.82-3.93-2.91c-1.04-1.07-1.97-2.23-2.81-3.49
	c-0.82-1.39-1.51-2.85-2.05-4.37c-0.79-2.25-0.82-3.63-0.93-24L1009.06,403.52L1009.06,403.52z"/>
<path class="st6" d="M171.5,450.37v13.35h-24.94v8.79h24.94v26.72h9.61v-26.72h24.92v-8.79H181.1v-26.7h-9.6V450.37z"/>
<path class="st7" d="M275.9,450.37v13.35h-24.91v8.38h24.91v27.11h9.61V472.1h24.91v-8.38h-24.91v-26.7h-9.61V450.37z"/>
<path class="st5" d="M224.5,484.3v9.35h-16.87v7.6h16.87v18.74h8.42v-18.75h16.86v-7.58h-16.86V474.9h-8.42V484.3z"/>
</svg>
